<svg xmlns="http://www.w3.org/2000/svg" viewBox="0 0 32 32">
  <defs>
    <linearGradient id="bg" x1="0" y1="0" x2="1" y2="1">
      <stop offset="0%" stop-color="#0a0a1a"/>
      <stop offset="100%" stop-color="#1a0a2e"/>
    </linearGradient>
    <linearGradient id="phone" x1="0" y1="0" x2="1" y2="1">
      <stop offset="0%" stop-color="#00ff88"/>
      <stop offset="100%" stop-color="#00cc66"/>
    </linearGradient>
  </defs>
  <!-- Background -->
  <rect width="32" height="32" rx="6" fill="url(#bg)"/>
  <!-- Phone handset -->
  <path d="M8 12c0-2 1-3 3-4 1-.5 2-.5 3 0l1 1c.5.5.5 1.5 0 2l-1.5 1.5c-.3.3-.3.7 0 1l3 3c.3.3.7.3 1 0L19 15c.5-.5 1.5-.5 2 0l1 1c.5 1 .5 2 0 3-1 2-2 3-4 3-3 0-6-2-8-4s-4-5-4-8z" fill="url(#phone)" opacity="0.95"/>
  <!-- Dollar sign -->
  <text x="22" y="12" font-family="Arial,sans-serif" font-size="10" font-weight="bold" fill="#ffd700" text-anchor="middle">$</text>
  <!-- Small chart arrow up -->
  <path d="M20 8l3-3m0 0v2.5m0-2.5h-2.5" stroke="#00ff88" stroke-width="1.5" fill="none" stroke-linecap="round" stroke-linejoin="round"/>
</svg>
